HIERARCHY
ROOT Hips
{
 OFFSET 0.000000 0.000000 0.000000
 CHANNELS 6 Xposition Yposition Zposition Yrotation Xrotation Zrotation
 JOINT Chest
 {
  OFFSET 0.000000 12.778769 -0.025672
  CHANNELS 3 Yrotation Xrotation Zrotation
  JOINT Chest2
  {
   OFFSET 0.000000 9.048585 0.046633
   CHANNELS 3 Yrotation Xrotation Zrotation
   JOINT Chest3
   {
    OFFSET 0.000000 8.173956 0.000000
    CHANNELS 3 Yrotation Xrotation Zrotation
    JOINT Chest4
    {
     OFFSET 0.000000 8.173956 0.000000
     CHANNELS 3 Yrotation Xrotation Zrotation
     JOINT Neck
     {
      OFFSET 0.000000 11.254521 0.000000
      CHANNELS 3 Yrotation Xrotation Zrotation
      JOINT Head
      {
       OFFSET 0.000000 7.627541 0.110895
       CHANNELS 3 Yrotation Xrotation Zrotation
       End Site
       {
        OFFSET 0.000000 14.324091 0.057923
       }
      }
     }
     JOINT RightCollar
     {
      OFFSET -2.416021 6.309018 0.000000
      CHANNELS 3 Yrotation Xrotation Zrotation
      JOINT RightShoulder
      {
       OFFSET -12.309578 0.000000 0.000000
       CHANNELS 3 Yrotation Xrotation Zrotation
       JOINT RightElbow
       {
        OFFSET -26.817880 0.000000 0.000000
        CHANNELS 3 Yrotation Xrotation Zrotation
        JOINT RightWrist
        {
         OFFSET -22.046493 0.000000 0.005727
         CHANNELS 3 Yrotation Xrotation Zrotation
         End Site
         {
          OFFSET -16.516461 0.000000 0.000000
         }
        }
       }
      }
     }
     JOINT LeftCollar
     {
      OFFSET 2.416021 6.309018 0.000000
      CHANNELS 3 Yrotation Xrotation Zrotation
      JOINT LeftShoulder
      {
       OFFSET 12.309578 0.000000 0.000000
       CHANNELS 3 Yrotation Xrotation Zrotation
       JOINT LeftElbow
       {
        OFFSET 26.817880 0.000000 0.000000
        CHANNELS 3 Yrotation Xrotation Zrotation
        JOINT LeftWrist
        {
         OFFSET 22.046493 0.000000 0.005727
         CHANNELS 3 Yrotation Xrotation Zrotation
         End Site
         {
          OFFSET 16.516461 0.000000 0.000000
         }
        }
       }
      }
     }
    }
   }
  }
 }
 JOINT RightHip
 {
  OFFSET -10.582077 0.125794 0.012836
  CHANNELS 3 Yrotation Xrotation Zrotation
  JOINT RightKnee
  {
   OFFSET 0.000000 -43.218284 0.001140
   CHANNELS 3 Yrotation Xrotation Zrotation
   JOINT RightAnkle
   {
    OFFSET 0.000000 -37.342314 0.092095
    CHANNELS 3 Yrotation Xrotation Zrotation
    JOINT RightToe
    {
     OFFSET 0.000000 -11.963287 17.799678
     CHANNELS 3 Yrotation Xrotation Zrotation
     End Site
     {
      OFFSET 0.000000 -1.355498 5.291052
     }
    }
   }
  }
 }
 JOINT LeftHip
 {
  OFFSET 10.582077 0.125794 0.012836
  CHANNELS 3 Yrotation Xrotation Zrotation
  JOINT LeftKnee
  {
   OFFSET 0.000000 -43.218284 0.001140
   CHANNELS 3 Yrotation Xrotation Zrotation
   JOINT LeftAnkle
   {
    OFFSET 0.000000 -37.342314 0.092095
    CHANNELS 3 Yrotation Xrotation Zrotation
    JOINT LeftToe
    {
     OFFSET 0.000000 -11.963287 17.799678
     CHANNELS 3 Yrotation Xrotation Zrotation
     End Site
     {
      OFFSET 0.000000 -1.355498 5.291052
     }
    }
   }
  }
 }
}
MOTION
Frames: 9
Frame Time: 0.016667
0.000000 92.231762 0.000000 0.000000 -5.826342 0.000000 0.000000 11.116423 0.000000 0.000000 -5.290081 0.000000 0.000000 0.000000 0.000000 0.000000 0.000000 0.000000 0.000000 12.665069 0.000000 0.000000 0.575450 0.000000 0.000000 0.000000 0.000000 0.000000 0.000000 0.000000 2.337306 0.000000 0.000000 -2.337306 0.000000 0.000000 0.000000 0.000000 0.000000 0.000000 0.000000 0.000000 -2.337306 0.000000 0.000000 2.337306 0.000000 0.000000 0.000000 8.578828 0.000000 0.000000 1.905768 0.000000 0.000000 -4.658254 0.000000 0.000000 0.000000 0.000000 0.000000 8.578828 0.000000 0.000000 1.905768 0.000000 0.000000 -4.658254 0.000000 0.000000 0.000000 0.000000
-86.966200 23.692417 -88.903141 -168.433618 -43.017554 17.067320 4.554031 -3.875948 -4.256661 1.992294 -1.757422 -1.852806 1.992294 -1.757422 -1.852806 1.488791 -1.324137 -1.383783 2.886817 37.245869 1.278362 5.026906 32.972782 2.038793 11.039516 7.578865 18.909159 -47.101900 16.440617 57.317932 -4.028142 6.261760 -5.880827 -16.645785 -7.277823 -7.226854 0.428669 3.750280 -12.368216 50.227480 9.893692 -46.546790 2.778926 10.987671 0.923714 14.473507 0.737902 10.070495 -159.761259 38.949223 -177.369676 -167.616832 -9.046992 -175.207068 3.886231 6.065512 0.628974 0.010997 -0.002801 -0.026817 167.596913 7.664479 168.414351 146.985761 -12.143763 172.329149 9.532025 6.727608 -12.271018 -0.049835 -0.078007 0.050247
-86.972792 23.734089 -88.925214 -168.625069 -43.134224 17.200485 4.599732 -3.796247 -4.255077 2.013773 -1.723992 -1.852078 2.013773 -1.723992 -1.852078 1.505006 -1.299127 -1.383290 2.909958 37.245903 1.285413 5.067462 32.972743 2.049461 11.048226 7.563561 18.914248 -47.089285 16.409002 57.341544 -4.026160 6.206502 -5.876881 -16.621438 -7.244145 -7.286533 0.414573 3.749429 -12.400069 50.315678 9.799938 -46.535285 2.734903 11.095014 0.938741 14.444934 0.722255 10.020754 -159.692658 38.784595 -177.416871 -167.603928 -9.043307 -175.207124 3.896270 6.058241 0.680808 0.020824 -0.006268 -0.042695 167.630019 7.449633 168.445244 146.929755 -12.108384 172.295970 9.564647 6.727940 -12.264228 -0.045842 -0.073672 0.041114
-86.974433 23.775241 -88.942721 -168.851323 -43.259335 17.362804 4.652800 -3.700700 -4.251202 2.038651 -1.684278 -1.850813 2.038651 -1.684278 -1.850813 1.523793 -1.269413 -1.382408 2.931214 37.236253 1.290381 5.104557 32.954782 2.056124 11.063277 7.541214 18.915941 -47.074501 16.373539 57.373516 -4.019478 6.159810 -5.875755 -16.621856 -7.208954 -7.331111 0.399097 3.740921 -12.434250 50.409679 9.685072 -46.535210 2.682111 11.198479 0.960639 14.432655 0.717818 9.975133 -159.615918 38.597862 -177.479136 -167.594163 -9.039500 -175.209746 3.890535 6.037050 0.668019 0.012818 -0.005217 -0.031586 167.693300 7.217070 168.483726 146.880388 -12.071492 172.262870 9.580153 6.730661 -12.273309 -0.043185 -0.072168 0.037654
-86.971258 23.813090 -88.959887 -169.110096 -43.386133 17.547952 4.706987 -3.595230 -4.250919 2.064248 -1.639894 -1.851143 2.064248 -1.639894 -1.851143 1.543128 -1.236202 -1.382741 2.959088 37.215866 1.300072 5.152711 32.916783 2.070123 11.090180 7.505704 18.931674 -47.057441 16.332607 57.402974 -4.001498 6.126562 -5.881227 -16.660188 -7.175578 -7.351207 0.394673 3.731219 -12.450963 50.504849 9.562742 -46.547484 2.626880 11.313288 0.978517 14.417423 0.704874 9.927452 -159.518589 38.400396 -177.542629 -167.581561 -9.033265 -175.205038 3.885250 6.020540 0.666984 0.014926 -0.005484 -0.031050 167.771056 6.969853 168.517434 146.820229 -12.034064 172.227218 9.617958 6.724194 -12.257317 -0.035988 -0.062521 0.023007
-86.963462 23.848582 -88.975809 -169.381511 -43.503937 17.741740 4.769100 -3.498594 -4.248333 2.093397 -1.598351 -1.850258 2.093397 -1.598351 -1.850258 1.565123 -1.205130 -1.382146 2.980821 37.194168 1.312168 5.189706 32.876245 2.088809 11.107265 7.500838 18.943205 -47.009687 16.280317 57.448455 -3.995637 6.079075 -5.883784 -16.710348 -7.145162 -7.364226 0.377439 3.723592 -12.477175 50.606382 9.456322 -46.546931 2.560159 11.414932 0.992190 14.409996 0.701674 9.888245 -159.395425 38.202140 -177.599228 -167.566884 -9.025099 -175.198126 3.871755 6.001636 0.685555 0.024252 -0.006363 -0.042860 167.867663 6.718955 168.547921 146.761116 -11.988591 172.186993 9.648405 6.718786 -12.239307 -0.029451 -0.053707 0.008524
-86.957878 23.879767 -88.987852 -169.646535 -43.609434 17.927418 4.836878 -3.404067 -4.240535 2.123314 -1.558423 -1.847757 2.123314 -1.558423 -1.847757 1.587692 -1.175266 -1.380336 2.994025 37.168813 1.326292 5.211258 32.828814 2.111598 11.108543 7.504278 18.945812 -46.937669 16.205887 57.503014 -4.013457 6.012263 -5.884633 -16.752914 -7.107666 -7.382475 0.341327 3.714729 -12.507314 50.698296 9.357781 -46.561447 2.506011 11.509682 1.008147 14.398410 0.690809 9.856775 -159.248194 38.026374 -177.645989 -167.550113 -9.016020 -175.188005 3.820332 5.983982 0.650452 0.020173 -0.003516 -0.035472 167.968245 6.481293 168.566299 146.705539 -11.946193 172.148264 9.656436 6.711304 -12.237904 -0.020491 -0.043117 0.000564
-86.949151 23.905916 -88.992717 -169.882449 -43.701686 18.095544 4.890685 -3.320292 -4.240533 2.145540 -1.522860 -1.848638 2.145540 -1.522860 -1.848638 1.604471 -1.148664 -1.381070 3.013297 37.142718 1.342500 5.243387 32.779972 2.137545 11.140958 7.485788 18.964473 -46.905346 16.122115 57.530336 -4.026705 5.973465 -5.875229 -16.823862 -7.055941 -7.389929 0.326164 3.710152 -12.523191 50.774328 9.260234 -46.585123 2.466580 11.584408 1.027774 14.397518 0.684144 9.844012 -159.094425 37.868995 -177.686350 -167.528822 -9.002132 -175.185289 3.768735 5.975644 0.644347 0.024872 -0.004123 -0.044283 168.065241 6.261747 168.579538 146.657208 -11.898636 172.107865 9.601633 6.721218 -12.287361 -0.018790 -0.041830 0.011354
-86.937167 23.926360 -88.994084 -170.070490 -43.774188 18.229544 4.926239 -3.255062 -4.248027 2.158161 -1.495570 -1.852805 2.158161 -1.495570 -1.852805 1.614012 -1.128249 -1.384263 3.036050 37.119690 1.361116 5.281579 32.736763 2.167616 11.201872 7.458354 19.002057 -46.916255 16.044069 57.543040 -4.038415 5.973637 -5.858305 -16.887391 -7.017403 -7.399232 0.330828 3.706321 -12.523662 50.839308 9.170612 -46.601804 2.441284 11.643772 1.045465 14.408756 0.688180 9.843416 -158.967100 37.737626 -177.729912 -167.512540 -8.986539 -175.186479 3.708466 5.959838 0.609758 0.022196 -0.002551 -0.041988 168.145662 6.075144 168.586150 146.621233 -11.848678 172.068928 9.605910 6.715615 -12.282234 -0.004883 -0.025432 0.001505
